<svg width="640" height="280" viewBox="0 0 640 280" xmlns="http://www.w3.org/2000/svg" role="img" aria-label="About hero illustration">
  <defs>
    <linearGradient id="ab1" x1="0" y1="0" x2="1" y2="1">
      <stop offset="0%" stop-color="#FFE0B2"/>
      <stop offset="100%" stop-color="#FFCC80"/>
    </linearGradient>
    <linearGradient id="ab2" x1="0" y1="0" x2="1" y2="0">
      <stop offset="0%" stop-color="#BBDEFB"/>
      <stop offset="100%" stop-color="#90CAF9"/>
    </linearGradient>
  </defs>
  <rect width="640" height="280" fill="url(#ab1)"/>
  <g fill="none" stroke="#ffffff" opacity="0.5">
    <path d="M40 200 Q 120 140 200 200 T 360 200 T 520 200 T 680 200"/>
  </g>
  <g transform="translate(320,70)">
    <rect x="-120" y="-20" width="240" height="140" rx="14" fill="#fff" stroke="#e6e6e6"/>
    <rect x="-96" y="4" width="192" height="12" rx="6" fill="#e3f2fd"/>
    <rect x="-96" y="28" width="160" height="12" rx="6" fill="#f1f8e9"/>
    <rect x="-96" y="52" width="176" height="12" rx="6" fill="#e3f2fd"/>
    <rect x="-96" y="76" width="120" height="28" rx="8" fill="url(#ab2)"/>
  </g>
  <g transform="translate(70,70)">
    <circle cx="36" cy="36" r="36" fill="#A5D6A7"/>
    <rect x="-10" y="84" width="92" height="12" rx="6" fill="#ffffff" opacity="0.6"/>
  </g>
</svg>
