<svg width="640" height="400" viewBox="0 0 640 400" xmlns="http://www.w3.org/2000/svg" role="img" aria-label="Login illustration">
  <defs>
    <linearGradient id="lg1" x1="0" y1="0" x2="1" y2="1">
      <stop offset="0%" stop-color="#C8E6C9"/>
      <stop offset="100%" stop-color="#A5D6A7"/>
    </linearGradient>
    <linearGradient id="lg2" x1="0" y1="0" x2="1" y2="0">
      <stop offset="0%" stop-color="#BBDEFB"/>
      <stop offset="100%" stop-color="#90CAF9"/>
    </linearGradient>
  </defs>
  <rect width="640" height="400" fill="url(#lg1)"/>
  <g fill="none" stroke="#ffffff" opacity="0.45">
    <rect x="460" y="40" width="120" height="80" rx="10"/>
    <rect x="470" y="52" width="80" height="12" rx="6"/>
    <rect x="470" y="72" width="64" height="12" rx="6"/>
  </g>
  <g transform="translate(80,80)">
    <rect x="0" y="0" width="360" height="240" rx="12" fill="#fff" stroke="#e6e6e6"/>
    <rect x="24" y="40" width="280" height="14" rx="7" fill="#bbdefb"/>
    <rect x="24" y="80" width="280" height="14" rx="7" fill="#e8f5e9"/>
    <rect x="24" y="120" width="160" height="14" rx="7" fill="#bbdefb"/>
    <rect x="24" y="160" width="120" height="28" rx="8" fill="url(#lg2)"/>
  </g>
  <g transform="translate(500,260)">
    <rect x="0" y="0" width="90" height="90" rx="12" fill="#ffffff" opacity="0.85" stroke="#e6e6e6"/>
    <rect x="20" y="24" width="50" height="8" rx="4" fill="#a5d6a7"/>
    <rect x="20" y="40" width="42" height="8" rx="4" fill="#90caf9"/>
  </g>
</svg>
