<svg width="640" height="400" viewBox="0 0 640 400" xmlns="http://www.w3.org/2000/svg" role="img" aria-label="Register illustration">
  <defs>
    <linearGradient id="g1" x1="0" y1="0" x2="1" y2="1">
      <stop offset="0%" stop-color="#BBDEFB"/>
      <stop offset="100%" stop-color="#90CAF9"/>
    </linearGradient>
    <linearGradient id="g2" x1="0" y1="0" x2="1" y2="0">
      <stop offset="0%" stop-color="#A5D6A7"/>
      <stop offset="100%" stop-color="#81C784"/>
    </linearGradient>
  </defs>
  <rect width="640" height="400" fill="url(#g1)"/>
  <g fill="none" stroke="#ffffff" opacity="0.5">
    <circle cx="520" cy="80" r="50"/>
    <circle cx="520" cy="80" r="80" opacity="0.4"/>
    <circle cx="520" cy="80" r="110" opacity="0.25"/>
  </g>
  <g transform="translate(60,80)">
    <rect x="0" y="0" width="360" height="240" rx="12" fill="#fff" stroke="#e6e6e6"/>
    <rect x="24" y="28" width="160" height="14" rx="7" fill="#e3f2fd"/>
    <rect x="24" y="56" width="312" height="14" rx="7" fill="#f1f8e9"/>
    <rect x="24" y="92" width="280" height="14" rx="7" fill="#e3f2fd"/>
    <rect x="24" y="128" width="200" height="14" rx="7" fill="#f1f8e9"/>
    <rect x="24" y="164" width="240" height="14" rx="7" fill="#e3f2fd"/>
    <rect x="24" y="200" width="120" height="28" rx="8" fill="url(#g2)"/>
  </g>
  <g transform="translate(470,260)">
    <rect x="0" y="0" width="110" height="110" rx="16" fill="#ffffff" opacity="0.8" stroke="#e6e6e6"/>
    <circle cx="55" cy="42" r="20" fill="#90caf9"/>
    <rect x="22" y="70" width="66" height="8" rx="4" fill="#a5d6a7"/>
  </g>
</svg>
